<svg width="506" height="144" viewBox="0 0 506 144" fill="none" xmlns="http://www.w3.org/2000/svg">
<ellipse cx="129" cy="88.5" rx="16" ry="18.5" fill="#FFB940"/>
<ellipse cx="212" cy="79.5" rx="16" ry="18.5" fill="#F9BCC3"/>
<ellipse cx="308" cy="77.5" rx="16" ry="18.5" fill="#D72E1D"/>
<path d="M36.307 88.664C36.019 90.776 35.635 95.864 35.059 104.12C34.483 112.376 34.003 117.752 33.715 120.056H12.115C12.115 118.52 11.923 115.832 11.731 111.896C11.539 108.056 11.443 104.984 11.443 102.776C11.443 99.992 11.635 95.768 12.019 90.008C12.403 84.344 12.595 80.024 12.691 77.144C12.691 73.688 12.691 68.696 12.595 62.168C12.499 55.64 12.499 51.416 12.499 49.4C12.403 49.112 12.595 45.944 12.979 39.896C14.899 39.224 16.915 38.744 19.219 38.36C21.427 38.072 23.347 37.88 24.883 37.88C26.419 37.88 28.627 37.976 31.315 37.976C34.003 38.072 35.923 38.072 37.171 38.072C37.939 38.072 38.803 38.648 39.763 39.8C43.603 44.792 48.595 55.448 54.739 71.672C54.739 71.864 55.603 73.592 57.139 77.048C57.811 73.496 58.483 66.776 59.059 56.888C59.635 47 60.307 40.28 61.075 36.824C72.979 36.824 79.603 36.824 80.947 36.728C81.907 36.728 82.675 37.016 83.251 37.496C83.827 38.072 84.115 38.552 84.307 39.032C84.403 39.512 84.499 40.184 84.595 40.952C84.787 43.928 84.883 49.112 84.979 56.504C84.979 58.712 84.883 61.784 84.691 65.816C84.499 68.12 84.307 71.288 84.115 75.512C83.827 79.736 83.635 83.48 83.443 86.936C83.251 90.392 83.155 93.56 83.059 96.536C82.867 100.184 82.963 105.176 83.347 111.512C83.347 112.472 83.251 113.144 82.867 113.528C82.483 113.912 81.907 114.296 81.139 114.584C78.259 115.544 75.571 116.312 72.883 116.696C70.195 117.08 67.603 117.272 65.203 117.272C62.707 117.272 59.923 117.176 56.755 117.08C55.699 117.08 54.835 117.08 54.067 116.984C53.299 116.984 52.723 116.888 52.435 116.888C52.051 116.888 51.187 116.984 49.747 116.984C48.691 116.984 47.923 116.792 47.443 116.408C46.963 116.024 46.579 115.256 46.291 114.296C45.715 112.76 44.179 108.44 41.683 101.336C39.187 94.328 37.651 90.104 37.267 88.76L36.307 88.664ZM139.411 65.528V64.184C139.219 61.976 139.411 60.536 139.987 59.96C140.563 59.384 142.099 59 144.595 58.616C145.843 58.424 147.283 58.328 148.819 58.328C150.355 58.328 151.699 58.424 152.755 58.424C153.811 58.52 155.251 58.616 157.075 58.808C158.899 59 160.243 59.192 161.107 59.192C162.547 59.384 163.507 59.672 164.083 60.248C164.563 60.824 164.851 61.784 164.851 63.224C164.851 73.496 164.851 80.984 164.851 85.784C164.755 87.32 164.563 89.624 164.275 92.504C163.987 95.384 163.795 97.208 163.795 97.784C163.699 98.36 163.699 99.224 163.699 100.568C163.699 101.912 163.603 102.872 163.603 103.256C163.219 106.328 162.739 109.112 162.163 111.8C161.779 113.336 161.203 114.392 160.435 115.064C159.571 115.736 158.419 116.12 156.883 116.312C151.891 116.792 148.531 116.984 146.707 116.984C146.419 116.984 146.131 116.888 145.939 116.696C145.651 116.504 145.363 116.216 144.979 115.832C144.595 115.448 144.211 115.16 144.019 114.968C137.875 117.464 132.595 118.52 128.083 118.328C121.171 118.04 115.219 116.696 110.323 114.2C105.043 111.704 101.875 107.192 100.819 100.76C99.667 94.328 99.763 87.608 101.011 80.6C101.875 75.512 104.659 71 109.363 67.064C114.451 62.84 120.403 60.728 127.123 60.824C132.499 61.016 136.627 62.552 139.411 65.528ZM120.883 87.896C119.539 91.16 120.019 94.04 122.131 96.44C123.475 97.976 124.819 99.032 126.259 99.416C127.603 99.8 129.331 99.704 131.251 99.032C131.923 98.84 132.499 98.456 133.075 98.072C133.651 97.688 134.035 97.016 134.419 96.248C134.803 95.48 134.995 94.904 135.187 94.52C135.283 94.232 135.571 93.56 135.955 92.408C136.435 90.776 136.339 89.336 135.763 87.992C135.091 86.744 134.035 85.4 132.595 83.864C131.827 83.096 130.579 82.712 129.043 82.616C127.507 82.616 125.875 83 124.243 83.864C122.611 84.824 121.459 86.168 120.883 87.896ZM179.616 39.608C182.304 38.84 183.744 38.456 183.936 38.36C188.736 36.152 194.688 35.48 201.6 36.44C212.352 37.976 218.304 38.84 219.456 39.032C226.176 40.088 232.224 42.872 237.696 47.48C239.424 49.016 241.824 51.896 244.8 56.12C250.944 65.048 254.112 73.88 254.208 82.712C254.208 89.816 252.864 95.768 250.176 100.664C247.392 105.56 242.976 109.688 237.024 113.144C233.568 115.16 229.92 116.6 226.08 117.464C222.24 118.424 217.92 119 213.024 119.384C211.872 119.576 209.664 119.768 206.4 120.056C203.04 120.44 200.448 120.632 198.72 120.728C197.952 120.824 196.896 120.824 195.552 120.632C194.208 120.536 193.344 120.44 192.96 120.44C192.384 120.44 191.52 120.44 190.56 120.536C189.6 120.632 188.832 120.632 188.448 120.632C186.912 120.632 185.952 120.536 185.76 120.248C183.552 118.328 182.4 116.504 182.4 114.872C181.536 99.896 180.96 89.528 180.768 83.768C180.384 76.088 179.904 62.168 179.232 41.912C179.232 41.816 179.328 41.048 179.616 39.608ZM203.136 66.872C204.288 78.488 204.864 85.208 205.056 86.936C205.248 88.664 206.208 89.528 207.936 89.336C208.512 89.336 209.76 89.432 211.776 89.432C213.696 89.528 215.04 89.432 215.616 89.24C217.536 88.952 219.168 88.088 220.416 86.744C222.432 84.632 223.296 81.752 222.912 78.2C222.624 76.088 222.144 74.36 221.472 72.92C220.704 71.48 219.456 70.328 217.728 69.464C215.616 68.504 213.504 67.832 211.392 67.448C209.184 67.16 206.4 66.968 203.136 66.872ZM299.523 96.824C299.619 98.936 300.387 100.76 301.731 102.104C303.075 103.448 304.803 104.312 307.107 104.504C309.603 104.792 311.715 104.792 313.443 104.408C313.827 104.312 314.307 104.024 314.883 103.448C315.458 102.872 315.843 102.296 316.035 101.72C316.419 100.568 317.187 99.992 318.339 99.992C323.523 99.8 327.555 99.8 330.627 99.8C330.819 99.896 331.107 100.184 331.491 100.664C331.875 101.144 331.971 101.528 331.971 101.816C331.587 106.904 330.627 110.744 329.283 113.432C327.843 116.12 325.059 118.328 320.835 120.248C320.067 120.632 319.491 120.824 319.01 120.824C318.147 120.92 315.171 121.304 309.987 122.072C304.803 122.84 300.771 123.032 298.083 122.552C289.539 121.208 282.819 118.328 278.019 113.72C275.139 111.032 273.027 107.576 271.683 103.16C271.491 102.68 271.299 102.008 270.915 101.048C270.531 100.184 270.339 99.416 270.147 98.84C269.955 98.264 269.763 97.592 269.667 96.728C269.475 95.96 269.475 95.096 269.571 94.328C271.107 83.384 274.467 75.032 279.747 69.272C286.371 62.168 294.243 58.52 303.363 58.328C304.995 58.328 308.739 58.52 314.595 59.096C318.051 59.48 321.123 61.496 323.715 65.048C323.907 65.24 324.099 65.624 324.483 66.008C326.019 68.216 327.171 69.944 327.939 71.096C328.707 72.344 329.571 73.976 330.531 76.088C331.395 78.2 331.971 80.12 332.163 81.944C332.259 83.096 332.355 84.248 332.355 85.592C332.355 86.936 332.355 87.992 332.355 88.856C332.355 89.72 332.259 90.968 332.259 92.6C332.163 94.232 332.067 95.288 332.067 95.864C332.067 96.152 331.779 96.44 331.395 96.728C331.011 97.112 330.627 97.208 330.435 97.208C328.803 97.208 324.771 97.208 318.339 97.016C312.387 96.92 306.627 96.824 301.251 96.632C301.155 96.632 300.579 96.728 299.523 96.824ZM297.507 85.112H309.699C312.003 84.92 313.347 84.632 313.731 84.056C314.115 83.576 314.211 82.136 313.923 79.832C313.923 79.448 313.731 78.968 313.347 78.488C312.963 78.008 312.579 77.624 312.195 77.432C311.811 77.24 309.411 76.376 304.899 74.744C303.171 74.168 301.539 74.648 300.195 76.184C298.275 78.392 297.411 81.368 297.507 85.112ZM385.52 61.976H398.096C400.016 61.976 401.072 62.936 401.36 64.856C401.456 65.72 401.648 67.256 402.032 69.464C402.416 71.672 402.704 73.592 402.896 75.128C403.088 76.664 403.184 78.2 403.28 79.64C403.472 85.88 403.664 95.768 403.856 109.208C403.856 112.76 403.472 115.16 402.512 116.312C401.552 117.464 399.44 118.424 396.08 119.192C395.696 119.288 395.024 119.48 394.064 119.768C393.104 120.152 392.336 120.344 391.856 120.44C391.28 120.536 390.608 120.536 389.84 120.344C388.976 120.152 388.208 119.864 387.536 119.288C387.344 119.192 387.152 119.192 386.768 119.288C386.384 119.48 386 119.672 385.424 119.96C384.848 120.344 384.464 120.536 384.272 120.536C375.44 124.28 367.856 124.088 361.424 119.96C353.552 114.968 349.328 107.576 348.752 97.88C348.656 96.728 348.464 93.56 348.08 88.376C347.696 83.288 347.408 79.352 347.408 76.568C347.312 75.032 347.312 73.304 347.408 71.48C347.504 69.752 347.696 67.736 347.888 65.432C348.08 63.224 348.176 61.592 348.272 60.536C351.344 60.728 352.976 60.824 353.168 60.824C357.968 60.824 361.904 60.728 364.88 60.536C365.264 60.536 365.648 60.536 365.936 60.632C366.128 60.728 366.32 60.92 366.416 61.208C366.512 61.592 366.608 61.784 366.608 61.88C366.608 61.976 366.608 62.264 366.704 62.84C366.704 63.8 366.704 65.144 366.704 66.872C366.704 68.6 366.8 70.232 366.896 71.576C366.896 72.92 366.992 74.264 367.184 75.512C367.376 77.432 367.664 78.968 367.856 80.12C368.048 81.272 368.528 82.52 369.2 84.056C369.872 85.592 370.832 86.84 371.984 87.8C373.424 89.144 375.152 90.2 377.264 90.968C378.8 91.544 380.048 91.352 381.2 90.392C382.256 89.432 383.024 88.184 383.408 86.552C385.904 77.144 386.576 68.888 385.52 61.976ZM426.877 120.824H424.861C424.477 118.04 424.285 116.6 424.285 116.408C424.189 100.088 424.189 90.296 424.381 86.936C424.381 84.44 425.053 70.904 426.301 46.328C426.301 45.752 426.397 44.792 426.493 43.352C426.493 41.912 426.589 40.76 426.685 39.992C426.685 37.688 427.933 36.536 430.429 36.536C435.421 36.728 440.125 36.824 444.733 37.016C446.653 37.208 447.613 38.264 447.613 40.28C446.845 55.064 446.461 64.088 446.269 67.544C446.173 68.6 445.885 71.768 445.501 77.144C445.021 82.52 444.829 86.648 444.829 89.528C444.829 92.312 444.829 95.192 444.925 98.168C445.021 101.24 445.117 104.696 445.309 108.536C445.501 112.376 445.597 115.256 445.693 117.08V119.288C445.693 119.384 444.445 119.48 442.045 119.576C439.645 119.672 436.861 119.864 433.789 120.056C430.621 120.248 428.317 120.536 426.877 120.824ZM471.613 70.232C477.373 68.216 483.517 68.216 489.853 70.232C493.309 71.384 495.133 73.688 495.133 77.144C495.133 92.12 495.133 104.216 495.133 113.624C495.037 116.408 494.557 118.232 493.789 119.096C492.925 119.96 491.101 120.536 488.413 120.92C487.645 121.112 486.301 121.304 484.573 121.688C482.749 122.072 481.405 122.264 480.445 122.264C479.677 122.456 478.717 122.072 477.757 121.208C476.509 120.248 475.549 119.096 474.781 117.944C474.013 116.792 473.533 115.448 473.149 113.912C472.765 112.376 472.573 111.128 472.477 110.072C472.381 109.112 472.285 107.576 472.285 105.656C472.189 105.272 472.189 104.888 472.189 104.6C471.997 100.952 471.805 93.176 471.613 81.272V70.232ZM469.117 39.512C469.885 39.32 471.037 39.032 472.669 38.552C474.301 38.072 475.741 37.688 476.989 37.4C478.237 37.112 479.485 36.824 480.733 36.632C484.189 36.248 486.685 37.592 488.029 40.664C488.317 41.432 488.605 42.104 488.797 42.872C488.989 43.64 489.085 44.408 489.181 45.176C489.181 45.944 489.277 46.616 489.277 47.192C489.277 47.768 489.181 48.536 489.085 49.496C488.989 50.456 488.893 51.224 488.893 51.608C488.893 51.992 488.797 52.76 488.605 53.912C488.413 55.064 488.317 55.736 488.317 55.928C488.029 57.56 486.781 58.424 484.573 58.424C479.293 58.616 475.645 58.712 473.725 58.712C473.245 58.712 472.765 58.52 472.285 58.136C471.805 57.848 471.421 57.464 471.229 57.08C468.541 52.568 467.773 47.768 468.829 42.68C468.829 42.68 468.925 41.624 469.117 39.512Z" fill="#20503A"/>
</svg>
